<svg version="1.1" id="Layer_1" xmlns="http://www.w3.org/2000/svg" xmlns:xlink="http://www.w3.org/1999/xlink" x="0px" y="0px"
	 width="100%" viewBox="0 0 622 337" enable-background="new 0 0 622 337" xml:space="preserve">
<path fill="#FFFFFF" opacity="1.000000" stroke="none" 
	d="
M146.000000,338.000000 
	C141.975449,338.000000 137.950912,338.000000 133.463181,337.531342 
	C133.000000,286.135193 133.000000,235.207687 133.000000,184.295776 
	C106.042572,184.295776 79.644691,184.295776 53.000000,184.295776 
	C53.000000,235.727432 53.000000,286.863708 53.000000,338.000000 
	C35.672176,338.000000 18.344355,338.000000 1.012399,338.000000 
	C1.008266,225.707886 1.008266,113.415787 1.008266,1.061838 
	C208.226181,1.061838 415.452393,1.061838 622.839294,1.061838 
	C622.839294,113.333160 622.839294,225.666550 622.839294,338.000000 
	C614.264893,338.000000 605.601135,338.000000 596.468628,337.531342 
	C596.000000,244.498581 596.000000,151.934494 596.000000,59.341038 
	C568.962341,59.341038 542.724060,59.341038 516.000000,59.341038 
	C516.000000,152.454147 516.000000,245.227066 516.000000,338.000000 
	C511.975464,338.000000 507.950897,338.000000 503.463196,337.531342 
	C503.000000,252.824783 503.000000,168.586884 503.000000,84.329842 
	C476.034973,84.329842 449.651703,84.329842 423.000000,84.329842 
	C423.000000,169.106262 423.000000,253.553131 423.000000,338.000000 
	C419.307098,338.000000 415.614166,338.000000 411.460632,337.531342 
	C411.000000,261.162750 411.000000,185.262833 411.000000,109.336884 
	C384.032745,109.336884 357.653900,109.336884 331.000000,109.336884 
	C331.000000,185.782288 331.000000,261.891144 331.000000,338.000000 
	C326.975464,338.000000 322.950897,338.000000 318.463196,337.531342 
	C318.000000,269.465332 318.000000,201.867996 318.000000,134.290665 
	C291.044312,134.290665 264.643158,134.290665 238.000000,134.290665 
	C238.000000,202.387360 238.000000,270.193665 238.000000,338.000000 
	C234.307098,338.000000 230.614182,338.000000 226.460632,337.531342 
	C226.000000,277.802124 226.000000,218.541550 226.000000,159.295990 
	C199.042770,159.295990 172.644592,159.295990 146.000000,159.295990 
	C146.000000,219.061081 146.000000,278.530548 146.000000,338.000000 
z"/>
<path fill="#EE82EE" opacity="1.000000" stroke="none" 
	d="
M516.468628,338.000000 
	C516.000000,245.227066 516.000000,152.454147 516.000000,59.341038 
	C542.724060,59.341038 568.962341,59.341038 596.000000,59.341038 
	C596.000000,151.934494 596.000000,244.498581 596.000000,337.531342 
	C569.645752,338.000000 543.291565,338.000000 516.468628,338.000000 
z"/>
<path fill="#FFA500" opacity="1.000000" stroke="none" 
	d="
M423.468658,338.000000 
	C423.000000,253.553131 423.000000,169.106262 423.000000,84.329842 
	C449.651703,84.329842 476.034973,84.329842 503.000000,84.329842 
	C503.000000,168.586884 503.000000,252.824783 503.000000,337.531342 
	C476.645782,338.000000 450.291534,338.000000 423.468658,338.000000 
z"/>
<path fill="#FFFF00" opacity="1.000000" stroke="none" 
	d="
M331.468658,338.000000 
	C331.000000,261.891144 331.000000,185.782288 331.000000,109.336884 
	C357.653900,109.336884 384.032745,109.336884 411.000000,109.336884 
	C411.000000,185.262833 411.000000,261.162750 411.000000,337.531342 
	C384.645782,338.000000 358.291534,338.000000 331.468658,338.000000 
z"/>
<path fill="#008000" opacity="1.000000" stroke="none" 
	d="
M238.468658,338.000000 
	C238.000000,270.193665 238.000000,202.387360 238.000000,134.290665 
	C264.643158,134.290665 291.044312,134.290665 318.000000,134.290665 
	C318.000000,201.867996 318.000000,269.465332 318.000000,337.531342 
	C291.645782,338.000000 265.291534,338.000000 238.468658,338.000000 
z"/>
<path fill="#FF0000" opacity="1.000000" stroke="none" 
	d="
M146.468658,338.000000 
	C146.000000,278.530548 146.000000,219.061081 146.000000,159.295990 
	C172.644592,159.295990 199.042770,159.295990 226.000000,159.295990 
	C226.000000,218.541550 226.000000,277.802124 226.000000,337.531342 
	C199.645767,338.000000 173.291550,338.000000 146.468658,338.000000 
z"/>
<path fill="#0000FF" opacity="1.000000" stroke="none" 
	d="
M53.468658,338.000000 
	C53.000000,286.863708 53.000000,235.727432 53.000000,184.295776 
	C79.644691,184.295776 106.042572,184.295776 133.000000,184.295776 
	C133.000000,235.207687 133.000000,286.135193 133.000000,337.531342 
	C106.645775,338.000000 80.291542,338.000000 53.468658,338.000000 
z"/>
</svg>